<?xml version="1.0" encoding="UTF-8" standalone="no"?><!-- Generator: Gravit.io --><svg xmlns="http://www.w3.org/2000/svg" xmlns:xlink="http://www.w3.org/1999/xlink" style="isolation:isolate" viewBox="0 0 800 450" width="800pt" height="450pt"><defs><clipPath id="_clipPath_9DiSgsBO292WqzGb2XhgOMS2MB24TiHC"><rect width="800" height="450"/></clipPath></defs><g clip-path="url(#_clipPath_9DiSgsBO292WqzGb2XhgOMS2MB24TiHC)"><line x1="532" y1="325" x2="672" y2="238" vector-effect="non-scaling-stroke" stroke-width="2" stroke="rgb(0,0,0)" stroke-linejoin="miter" stroke-linecap="square" stroke-miterlimit="3"/><path d=" M 667.193 249.312 L 675.472 235.842 L 659.729 237.301 Z " fill="rgb(0,0,0)" stroke="none"/><line x1="375" y1="229" x2="516" y2="309" vector-effect="non-scaling-stroke" stroke-width="2" stroke="rgb(0,0,0)" stroke-linejoin="miter" stroke-linecap="square" stroke-miterlimit="3"/><path d=" M 503.766 310.189 L 519.556 311.018 L 510.745 297.889 Z " fill="rgb(0,0,0)" stroke="none"/><line x1="218" y1="312" x2="360" y2="233" vector-effect="non-scaling-stroke" stroke-width="2" stroke="rgb(0,0,0)" stroke-linejoin="miter" stroke-linecap="square" stroke-miterlimit="3"/><path d=" M 354.652 244.067 L 363.573 231.012 L 347.777 231.709 Z " fill="rgb(0,0,0)" stroke="none"/><path d=" M 130 217 C 227.318 196.788 306.994 152.131 369 83" fill="none" vector-effect="non-scaling-stroke" stroke-width="2" stroke="rgb(0,0,0)" stroke-linejoin="miter" stroke-linecap="square" stroke-miterlimit="3"/><path d=" M 367.512 95.201 L 371.739 79.965 L 357.014 85.725 Z " fill="rgb(0,0,0)" stroke="none"/><path d=" M 133 232 C 209.815 259.848 287.491 302.858 366 361" fill="none" vector-effect="non-scaling-stroke" stroke-width="2" stroke="rgb(0,0,0)" stroke-linejoin="miter" stroke-linecap="square" stroke-miterlimit="3"/><path d=" M 353.712 360.714 L 369.288 363.429 L 362.115 349.339 Z " fill="rgb(0,0,0)" stroke="none"/><line x1="388" y1="372" x2="510" y2="333" vector-effect="non-scaling-stroke" stroke-width="2" stroke="rgb(0,0,0)" stroke-linejoin="miter" stroke-linecap="square" stroke-miterlimit="3"/><path d=" M 502.577 342.797 L 513.894 331.755 L 498.271 329.326 Z " fill="rgb(0,0,0)" stroke="none"/><line x1="225" y1="335" x2="357" y2="372" vector-effect="non-scaling-stroke" stroke-width="2" stroke="rgb(0,0,0)" stroke-linejoin="miter" stroke-linecap="square" stroke-miterlimit="3"/><path d=" M 345.411 376.095 L 360.937 373.103 L 349.228 362.478 Z " fill="rgb(0,0,0)" stroke="none"/><line x1="388" y1="68" x2="510" y2="113" vector-effect="non-scaling-stroke" stroke-width="2" stroke="rgb(0,0,0)" stroke-linejoin="miter" stroke-linecap="square" stroke-miterlimit="3"/><path d=" M 498.12 116.155 L 513.836 114.415 L 503.014 102.887 Z " fill="rgb(0,0,0)" stroke="none"/><line x1="532" y1="120" x2="672" y2="207" vector-effect="non-scaling-stroke" stroke-width="2" stroke="rgb(0,0,0)" stroke-linejoin="miter" stroke-linecap="square" stroke-miterlimit="3"/><path d=" M 659.729 207.699 L 675.472 209.158 L 667.193 195.688 Z " fill="rgb(0,0,0)" stroke="none"/><line x1="237" y1="120" x2="363" y2="207" vector-effect="non-scaling-stroke" stroke-width="2" stroke="rgb(0,0,0)" stroke-linejoin="miter" stroke-linecap="square" stroke-miterlimit="3"/><path d=" M 350.709 207.106 L 366.364 209.323 L 358.745 195.469 Z " fill="rgb(0,0,0)" stroke="none"/><line x1="373" y1="210" x2="516" y2="134" vector-effect="non-scaling-stroke" stroke-width="2" stroke="rgb(0,0,0)" stroke-linejoin="miter" stroke-linecap="square" stroke-miterlimit="3"/><path d=" M 510.441 144.962 L 519.61 132.081 L 503.804 132.474 Z " fill="rgb(0,0,0)" stroke="none"/><line x1="385" y1="221" x2="660" y2="221" vector-effect="non-scaling-stroke" stroke-width="2" stroke="rgb(0,0,0)" stroke-linejoin="miter" stroke-linecap="square" stroke-miterlimit="3"/><path d=" M 649.946 228.071 L 664.088 221 L 649.946 213.929 Z " fill="rgb(0,0,0)" stroke="none"/><line x1="133" y1="221" x2="355" y2="221" vector-effect="non-scaling-stroke" stroke-width="2" stroke="rgb(0,0,0)" stroke-linejoin="miter" stroke-linecap="square" stroke-miterlimit="3"/><path d=" M 344.946 228.071 L 359.088 221 L 344.946 213.929 Z " fill="rgb(0,0,0)" stroke="none"/><line x1="121" y1="207" x2="206" y2="127" vector-effect="non-scaling-stroke" stroke-width="2" stroke="rgb(0,0,0)" stroke-linejoin="miter" stroke-linecap="square" stroke-miterlimit="3"/><path d=" M 203.525 139.04 L 208.977 124.198 L 193.833 128.741 Z " fill="rgb(0,0,0)" stroke="none"/><circle vector-effect="non-scaling-stroke" cx="373" cy="68" r="15" fill="rgb(0,0,0)"/><circle vector-effect="non-scaling-stroke" cx="526" cy="120" r="15" fill="rgb(0,0,0)"/><circle vector-effect="non-scaling-stroke" cx="223" cy="120" r="15" fill="rgb(0,0,0)"/><circle vector-effect="non-scaling-stroke" cx="121" cy="222" r="15" fill="rgb(0,0,0)"/><circle vector-effect="non-scaling-stroke" cx="679" cy="222" r="15" fill="rgb(0,0,0)"/><circle vector-effect="non-scaling-stroke" cx="373" cy="222" r="15" fill="rgb(0,0,0)"/><circle vector-effect="non-scaling-stroke" cx="373" cy="376" r="15" fill="rgb(0,0,0)"/><circle vector-effect="non-scaling-stroke" cx="223" cy="324" r="15" fill="rgb(0,0,0)"/><circle vector-effect="non-scaling-stroke" cx="526" cy="324" r="15" fill="rgb(0,0,0)"/><line x1="223" y1="108" x2="360" y2="68" vector-effect="non-scaling-stroke" stroke-width="2" stroke="rgb(0,0,0)" stroke-linejoin="miter" stroke-linecap="square" stroke-miterlimit="3"/><path d=" M 352.331 77.605 L 363.925 66.854 L 348.367 64.03 Z " fill="rgb(0,0,0)" stroke="none"/><line x1="124" y1="235" x2="208" y2="316" vector-effect="non-scaling-stroke" stroke-width="2" stroke="rgb(0,0,0)" stroke-linejoin="miter" stroke-linecap="square" stroke-miterlimit="3"/><path d=" M 195.855 314.111 L 210.943 318.838 L 205.671 303.931 Z " fill="rgb(0,0,0)" stroke="none"/><text transform="matrix(1,0,0,1,149.5,157.141)" style="font-family:'Open Sans';font-weight:400;font-size:20px;font-style:normal;fill:#000000;stroke:none;">6</text><text transform="matrix(1,0,0,1,273,77.141)" style="font-family:'Open Sans';font-weight:400;font-size:20px;font-style:normal;fill:#000000;stroke:none;">6</text><text transform="matrix(1,0,0,1,223,171.377)" style="font-family:'Open Sans';font-weight:400;font-size:20px;font-style:normal;fill:#000000;stroke:none;">8</text><text transform="matrix(1,0,0,1,596,155.377)" style="font-family:'Open Sans';font-weight:400;font-size:20px;font-style:normal;fill:#000000;stroke:none;">9</text><text transform="matrix(1,0,0,1,611,296.877)" style="font-family:'Open Sans';font-weight:400;font-size:20px;font-style:normal;fill:#000000;stroke:none;">16</text><text transform="matrix(1,0,0,1,76,229.929)" style="font-family:'Noto Sans';font-weight:400;font-size:24px;font-style:normal;fill:#000000;stroke:none;">V1</text><text transform="matrix(1,0,0,1,188,100.969)" style="font-family:'Noto Sans';font-weight:400;font-size:24px;font-style:normal;fill:#000000;stroke:none;">V2</text><text transform="matrix(1,0,0,1,358,45.969)" style="font-family:'Noto Sans';font-weight:400;font-size:24px;font-style:normal;fill:#000000;stroke:none;">V3</text><text transform="matrix(1,0,0,1,532,100.969)" style="font-family:'Noto Sans';font-weight:400;font-size:24px;font-style:normal;fill:#000000;stroke:none;">V4</text><text transform="matrix(1,0,0,1,694,229.929)" style="font-family:'Noto Sans';font-weight:400;font-size:24px;font-style:normal;fill:#000000;stroke:none;">V9</text><text transform="matrix(1,0,0,1,358,199.969)" style="font-family:'Noto Sans';font-weight:400;font-size:24px;font-style:normal;fill:#000000;stroke:none;">V5</text><text transform="matrix(1,0,0,1,188,364.969)" style="font-family:'Noto Sans';font-weight:400;font-size:24px;font-style:normal;fill:#000000;stroke:none;">V6</text><text transform="matrix(1,0,0,1,358,416.652)" style="font-family:'Noto Sans';font-weight:400;font-size:24px;font-style:normal;fill:#000000;stroke:none;">V7</text><text transform="matrix(1,0,0,1,532,364.969)" style="font-family:'Noto Sans';font-weight:400;font-size:24px;font-style:normal;fill:#000000;stroke:none;">V8</text><text transform="matrix(1,0,0,1,445.5,77.141)" style="font-family:'Open Sans';font-weight:400;font-size:20px;font-style:normal;fill:#000000;stroke:none;">7</text><text transform="matrix(1,0,0,1,142.5,296.877)" style="font-family:'Open Sans';font-weight:400;font-size:20px;font-style:normal;fill:#000000;stroke:none;">3</text><text transform="matrix(1,0,0,1,273,379.759)" style="font-family:'Open Sans';font-weight:400;font-size:20px;font-style:normal;fill:#000000;stroke:none;">3</text><text transform="matrix(1,0,0,1,445.5,378.135)" style="font-family:'Open Sans';font-weight:400;font-size:20px;font-style:normal;fill:#000000;stroke:none;">9</text><text transform="matrix(1,0,0,1,238,214.759)" style="font-family:'Open Sans';font-weight:400;font-size:20px;font-style:normal;fill:#000000;stroke:none;">6</text><text transform="matrix(1,0,0,1,522.5,214.759)" style="font-family:'Open Sans';font-weight:400;font-size:20px;font-style:normal;fill:#000000;stroke:none;">5</text><text transform="matrix(1,0,0,1,449,269.641)" style="font-family:'Open Sans';font-weight:400;font-size:20px;font-style:normal;fill:#000000;stroke:none;">6</text><text transform="matrix(1,0,0,1,223,269.641)" style="font-family:'Open Sans';font-weight:400;font-size:20px;font-style:normal;fill:#000000;stroke:none;">9</text><text transform="matrix(1,0,0,1,414.549,168.995)" style="font-family:'Open Sans';font-weight:400;font-size:20px;font-style:normal;fill:#000000;stroke:none;">3</text><text transform="matrix(1,0,0,1,305,281.191)" style="font-family:'Open Sans';font-weight:400;font-size:20px;font-style:normal;fill:#000000;stroke:none;">7</text><text transform="matrix(1,0,0,1,323.5,174.759)" style="font-family:'Open Sans';font-weight:400;font-size:20px;font-style:normal;fill:#000000;stroke:none;">2</text></g></svg>